<svg width="25" height="26" viewBox="0 0 25 26" fill="none" xmlns="http://www.w3.org/2000/svg">
<path fill-rule="evenodd" clip-rule="evenodd" d="M16.5102 2.7091C17.1675 2.7091 17.8237 2.80551 18.4477 3.02326C22.2925 4.32326 23.6779 8.71076 22.5206 12.5458C21.8644 14.5055 20.7915 16.2941 19.3862 17.7555C17.3748 19.7813 15.1675 21.5797 12.7914 23.1288L12.531 23.2924L12.2602 23.118C9.87582 21.5797 7.65603 19.7813 5.62582 17.7447C4.22999 16.2833 3.15603 14.5055 2.48937 12.5458C1.31228 8.71076 2.6977 4.32326 6.58416 3.00051C6.88624 2.89218 7.1977 2.81635 7.5102 2.7741H7.6352C7.92791 2.72968 8.21853 2.7091 8.5102 2.7091H8.62478C9.28103 2.72968 9.91645 2.84885 10.5321 3.0666H10.5935C10.6352 3.08718 10.6664 3.10993 10.6873 3.13051C10.9175 3.20743 11.1352 3.2941 11.3435 3.41326L11.7394 3.59743C11.835 3.65048 11.9424 3.73155 12.0352 3.80161C12.0939 3.84599 12.1469 3.88597 12.1873 3.9116C12.2043 3.92203 12.2216 3.93252 12.239 3.94309C12.3283 3.99732 12.4213 4.0538 12.4998 4.11635C13.6571 3.1966 15.0623 2.69826 16.5102 2.7091ZM19.281 10.5091C19.7081 10.4972 20.0727 10.1408 20.104 9.68468V9.55576C20.1352 8.03801 19.2508 6.66326 17.906 6.13243C17.4789 5.97968 17.0102 6.2191 16.8539 6.6741C16.7081 7.1291 16.9373 7.62743 17.3748 7.78885C18.0425 8.04885 18.4894 8.73243 18.4894 9.48968V9.52326C18.4696 9.77135 18.5414 10.0108 18.6873 10.1949C18.8331 10.3791 19.0519 10.4863 19.281 10.5091Z" fill="#FF0000" fill-opacity="0.67"/>
</svg>
